<svg viewBox="0 2 14 14" xmlns="http://www.w3.org/2000/svg"><path fill="#DEE2E6" d="m6.7664067 12.786415c-.404781-.395171-.8343103-.761045-1.886115-1.606485-1.0881521-.874637-1.4413368-1.1811157-1.8781655-1.6294836-.8272608-.8492392-1.2107933-1.5871864-1.2865179-2.4755228-.0298979-.350175.0089994-.6860509.1213313-1.0367258.0551961-.1731876.1636283-.4159702.238433-.5341618.0260981-.040997.0469966-.082994.0464966-.0919934-.0005599-.0099993-.0164988-.1106921-.0354974-.2254838-.1160117-.7022498-.0719949-1.425598.1318405-2.1666449.168518-.6125562.4942346-1.2956073.879667-1.844568.0693951-.0989929.1276009-.17778732.1292908-.1752875.002 0-.004.086994-.011699.1880866-.027498.3412756.006.8726375.081094 1.2938074.1141519.6389542.3423855 1.1991141.6606627 1.6214839l.083294.1104921.3614641.01c.3083579.01.3880522.014999.5423812.051996.6670422.1571887 1.3223653.5114633 1.913403 1.0345259l.14103.1247907.052896-.043997c.0290981-.0239982.100863-.0869937.1594788-.13869.4151103-.3671737.9801498-.7006498 1.4693048-.8670379.3678737-.125191.5131533-.1506892.9186442-.1607885l.3614741-.01.083294-.110592c.352145-.4672666.584418-1.076123.69495-1.8217696.0429-.2890793.0669-.8135418.0485-1.0601241-.009-.1192915-.0149-.2189844-.0133-.2214842.002 0 .05969.075995.12913.1752875.385433.5489607.711159 1.2320118.879677 1.8446679.204506.7434468.248093 1.4601955.131731 2.1665449-.0189.1147918-.0348.2162845-.0354.2254839-.00057.01.0204.050996.0465.091993.122061.1927862.259721.5505606.314818.8179414.123631.6002571.0315 1.2751087-.257142 1.8830652-.213585.4499678-.519733.8684379-.98443 1.3454037-.437088.4486686-.791143.7558468-1.8781663 1.6293838-1.0410055.83654-1.4967529 1.225013-1.9045237 1.623184-.110912.108292-.2085751.196586-.2170244.196286-.008-.0003-.1132219-.09599-.2328034-.212885z"/></svg>